REM COMMENT lûd cue v1
REM MUSICBRAINZ_ALBUM_ID 12d5a9d5-aa95-4f25-aca9-e482b616a3ca
TITLE "Mysteryland NL 2014: L'Afrique"
PERFORMER "ID&T"
FILE "disc01.01.mp3" WAVE
  TRACK 01 AUDIO
    TITLE "L'Afrique"
    PERFORMER "Cincity"
    INDEX 01 00:00:00
FILE "disc01.02.mp3" WAVE
  TRACK 02 AUDIO
    TITLE "L'Afrique"
    PERFORMER "Madison Groove"
    INDEX 01 00:00:00
FILE "disc01.03.mp3" WAVE
  TRACK 03 AUDIO
    TITLE "L'Afrique"
    PERFORMER "Morelasoul"
    INDEX 01 00:00:00
FILE "disc01.04.mp3" WAVE
  TRACK 04 AUDIO
    TITLE "L'Afrique"
    PERFORMER "Soulroots"
    INDEX 01 00:00:00
FILE "disc01.05.mp3" WAVE
  TRACK 05 AUDIO
    TITLE "L'Afrique"
    PERFORMER "R-Jay"
    INDEX 01 00:00:00
FILE "disc01.06.mp3" WAVE
  TRACK 06 AUDIO
    TITLE "L'Afrique"
    PERFORMER "Rico Rosa"
    INDEX 01 00:00:00
FILE "disc01.07.mp3" WAVE
  TRACK 07 AUDIO
    TITLE "L'Afrique"
    PERFORMER "Pascal Morais"
    INDEX 01 00:00:00
FILE "disc01.08.mp3" WAVE
  TRACK 08 AUDIO
    TITLE "L'Afrique"
    PERFORMER "Rancido"
    INDEX 01 00:00:00
